<?xml version="1.0" encoding="UTF-8"?>
<!--Generator: Apple Native CoreSVG 175.5-->
<!DOCTYPE svg
PUBLIC "-//W3C//DTD SVG 1.1//EN"
       "http://www.w3.org/Graphics/SVG/1.1/DTD/svg11.dtd">
<svg version="1.1" xmlns="http://www.w3.org/2000/svg" xmlns:xlink="http://www.w3.org/1999/xlink" width="12.7383" height="21.4688">
 <g>
  <rect height="21.4688" opacity="0" width="12.7383" x="0" y="0"/>
  <path d="M0 10.7285C0 11.3086 0.205078 11.7832 0.691406 12.2578L9.55078 20.9297C9.9082 21.293 10.3359 21.4629 10.8457 21.4629C11.8887 21.4629 12.7383 20.625 12.7383 19.5996C12.7383 19.0781 12.5156 18.6035 12.1289 18.2227L4.40625 10.7227L12.1289 3.23438C12.5215 2.84766 12.7383 2.37305 12.7383 1.86328C12.7383 0.832031 11.8887 0 10.8457 0C10.3301 0 9.9082 0.169922 9.55078 0.527344L0.691406 9.19922C0.210938 9.66797 0.00585938 10.1426 0 10.7285Z" fill="#ffffff" fill-opacity="0.85"/>
 </g>
</svg>
