<?xml version="1.0" encoding="UTF-8"?>
<!--Generator: Apple Native CoreSVG 175.5-->
<!DOCTYPE svg
PUBLIC "-//W3C//DTD SVG 1.1//EN"
       "http://www.w3.org/Graphics/SVG/1.1/DTD/svg11.dtd">
<svg version="1.1" xmlns="http://www.w3.org/2000/svg" xmlns:xlink="http://www.w3.org/1999/xlink" width="12.7383" height="21.4688">
 <g>
  <rect height="21.4688" opacity="0" width="12.7383" x="0" y="0"/>
  <path d="M12.7383 10.7285C12.7266 10.1426 12.5215 9.66797 12.041 9.19922L3.1875 0.527344C2.82422 0.169922 2.40234 0 1.88086 0C0.849609 0 0 0.832031 0 1.86328C0 2.37305 0.210938 2.84766 0.603516 3.23438L8.32617 10.7227L0.603516 18.2227C0.216797 18.6035 0 19.0781 0 19.5996C0 20.625 0.849609 21.4629 1.88086 21.4629C2.39062 21.4629 2.82422 21.293 3.1875 20.9297L12.041 12.2578C12.5273 11.7832 12.7383 11.3086 12.7383 10.7285Z" fill="#ffffff" fill-opacity="0.85"/>
 </g>
</svg>
